<?xml version="1.0" encoding="utf-8"?>
<!-- Generator: Adobe Illustrator 19.0.0, SVG Export Plug-In . SVG Version: 6.00 Build 0)  -->
<svg version="1.1" xmlns="http://www.w3.org/2000/svg" xmlns:xlink="http://www.w3.org/1999/xlink" x="0px" y="0px"
	 viewBox="0 0 646 715" style="enable-background:new 0 0 646 715;" xml:space="preserve">
<style type="text/css">
	.st0{display:none;}
	.st1 base{display:inline;fill:#F2F2F2;stroke:#666666;stroke-width:2;stroke-miterlimit:10;}
	.st2 letter{display:inline;fill:#999999;}
	.st3 boxes{display:inline;}
	.st4{fill:#339933;stroke:#1A1A1A;stroke-width:2;stroke-miterlimit:10;}
</style>
<g id="sorri-right-hand" class="st0">
	<path id="base_1_" class="st1 base" d="M231.4,607.1c16.4-1.8,35.4-3.4,56.3-4.4c17.3-0.8,35.8-1.2,55.1-0.8c17.2,0.4,34.9,1.3,52.9,3
		c5.8,0.6,11.6,1.2,17.5,1.9c9.2,1.2,18.5,2.6,27.7,4.2c-1.1,1.3-1.6,2.4-1.6,2.4L422.7,689h-28.3h-42.4h-8.5h-53.2h-52.9h-9.2
		l-20.6-75.2c0,0-0.7-1.5-1.9-3.3C213.3,609.4,221.9,608.1,231.4,607.1z"/>
	<path id="letter-d_1_" class="st2 letter" d="M304,618.6h20.9c4.7,0,8.3,0.4,10.8,1.1c3.3,1,6.2,2.7,8.5,5.2c2.4,2.5,4.2,5.6,5.4,9.2
		c1.2,3.6,1.9,8.1,1.9,13.4c0,4.7-0.6,8.7-1.7,12.1c-1.4,4.1-3.4,7.5-6.1,10c-2,1.9-4.7,3.4-8,4.5c-2.5,0.8-5.9,1.2-10.1,1.2H304
		V618.6z M315.4,628.2v37.5h8.5c3.2,0,5.5-0.2,6.9-0.5c1.9-0.5,3.4-1.3,4.6-2.4c1.2-1.1,2.2-2.9,3-5.5c0.8-2.5,1.2-6,1.2-10.4
		s-0.4-7.7-1.2-10.1c-0.8-2.3-1.9-4.2-3.2-5.5c-1.4-1.3-3.2-2.2-5.3-2.7c-1.6-0.4-4.7-0.5-9.4-0.5H315.4z"/>
	<g id="boxes_1_" class="st3 boxes">
		<path id="box-50_1_" class="st4 box" data-param_id="1" data-scale_id="1" d="M231.4,607.1c-9.5,1-18.1,2.1-25.6,3.2c-2.9-4.9-8.4-14.1-9.1-15.9
			c-6.7-18.8-12.2-36.5-16.5-53.1c12-1.3,27-2.8,44.5-4C227.2,561.3,229.4,584.8,231.4,607.1z"/>
		<path id="box-49_1_" class="st4 box" data-param_id="1" data-scale_id="1" d="M287.7,602.6c-20.9,1-40,2.6-56.3,4.4c-2-22.3-4.2-45.7-6.7-69.8c17.6-1.3,37.8-2.3,60-2.8
			C285.8,557.9,286.9,580.8,287.7,602.6z"/>
		<path id="box-48_1_" class="st4 box" data-param_id="1" data-scale_id="1" d="M342.7,534.3c0,23.2,0,45.9,0.1,67.6c-19.3-0.4-37.8,0-55.1,0.8c-0.9-21.8-1.9-44.7-3-68.3
			C302.8,533.9,322.3,533.8,342.7,534.3z"/>
		<path id="box-47_1_" class="st4 box" data-param_id="1" data-scale_id="1" d="M342.7,534.3c18.1,0.4,37,1.2,56.5,2.5c-1.5,22.6-2.7,45.4-3.5,68.1c-18-1.7-35.7-2.7-52.9-3
			C342.7,580.1,342.7,557.5,342.7,534.3z"/>
		<path id="box-46_1_" class="st4 box" data-param_id="1" data-scale_id="1" d="M399.2,536.8c18.1,1.2,36.8,2.9,55.7,5.2c1.8,0.2,3.7,0.4,5.5,0.7
			c-0.4,13.9-0.6,29.1-0.6,45.9c-10.5,12.4-16.4,19.4-19,22.5c-9.2-1.6-18.5-3-27.7-4.2c-5.8-0.7-11.7-1.4-17.5-1.9
			C396.5,582.2,397.7,559.4,399.2,536.8z"/>
		<path id="box-45_1_" class="st4 box" data-param_id="1" data-scale_id="1" d="M224.7,537.2c-17.5,1.2-32.5,2.7-44.5,4c-6.8-25.9-10.9-49.1-13.3-69.8
			c11.8-2,28.7-4.4,49.9-6.7C219.6,489.2,222.2,513.5,224.7,537.2z"/>
		<path id="box-44_1_" class="st4 box" data-param_id="1" data-scale_id="1" d="M284.7,534.4c-22.2,0.5-42.4,1.6-60,2.8c-2.4-23.7-5.1-48-7.9-72.4
			c18.4-1.9,39.9-3.7,64.1-4.7C282.2,485.3,283.5,510.2,284.7,534.4z"/>
		<path id="box-43_1_" class="st4 box" data-param_id="1" data-scale_id="1" d="M342.9,459.1c-0.1,25.5-0.2,50.6-0.2,75.1c-20.5-0.4-39.9-0.4-58,0.1
			c-1.2-24.2-2.5-49.1-3.8-74.3C300,459.2,320.8,458.8,342.9,459.1z"/>
		<path id="box-42_1_" class="st4 box" data-param_id="1" data-scale_id="1" d="M342.7,534.3c0-24.5,0.1-49.7,0.2-75.1c19.8,0.3,40.6,1.1,62.3,2.6c-2.3,24.8-4.4,49.9-6,75.1
			C379.7,535.5,360.8,534.7,342.7,534.3z"/>
		<path id="box-41_1_" class="st4 box" data-param_id="1" data-scale_id="1" d="M405.2,461.7c19,1.3,38.7,3.3,58.9,5.8c-1.4,19-2.7,39.9-3.5,64.8c-0.1,3.3-0.2,6.8-0.3,10.3
			c-1.8-0.2-3.7-0.5-5.5-0.7c-19-2.3-37.6-4-55.7-5.2C400.9,511.6,402.9,486.5,405.2,461.7z"/>
		<path id="box-40_1_" class="st4 box" data-param_id="1" data-scale_id="1" d="M216.8,464.8c-21.2,2.2-38.1,4.7-49.9,6.7c-3.4-29.2-3.3-53.3-2.3-72.7
			c7.8-1.6,22.9-4.5,43.3-7.6C211,415.5,213.9,440.2,216.8,464.8z"/>
		<path id="box-39_1_" class="st4 box" data-param_id="1" data-scale_id="1" d="M280.9,460.1c-24.2,1.1-45.7,2.8-64.1,4.7c-2.8-24.6-5.8-49.3-8.9-73.6
			c18.8-2.8,42.2-5.7,68.5-7.7C278,409,279.5,434.7,280.9,460.1z"/>
		<path id="box-38_1_" class="st4 box" data-param_id="1" data-scale_id="1" d="M280.9,460.1c-1.4-25.4-2.9-51-4.4-76.6c20.8-1.6,43.4-2.7,67.1-2.7
			c-0.2,26.2-0.4,52.4-0.6,78.4C320.8,458.8,300,459.2,280.9,460.1z"/>
		<path id="box-37_1_" class="st4 box" data-param_id="1" data-scale_id="1" d="M343.5,380.7c22.6-0.1,46.2,0.8,70.1,3c-3,25.5-5.9,51.6-8.3,78c-21.7-1.5-42.5-2.3-62.3-2.6
			C343.1,433.2,343.3,406.9,343.5,380.7z"/>
		<path id="box-36_1_" class="st4 box" data-param_id="1" data-scale_id="1" d="M405.2,461.7c2.5-26.4,5.3-52.5,8.3-78c15.4,1.4,30.9,3.4,46.3,6c1,17.4,3.1,31.9,6.8,37.2
			c0.2,0.3,0.5,0.5,0.8,0.6c-1.1,12.9-2.2,26-3.3,40.1C444,465,424.3,463.1,405.2,461.7z"/>
		<path id="box-35_1_" class="st4 box" data-param_id="1" data-scale_id="1" d="M207.9,391.1c-20.4,3-35.5,6-43.3,7.6c1.3-24.6,4.2-41.6,3.6-51.8c-0.1-1.4-0.2-2.8-0.3-4.1
			c9.5-7.2,19.9-14,31.1-20C202,345,205,367.9,207.9,391.1z"/>
		<path id="box-34_1_" class="st4 box" data-param_id="1" data-scale_id="1" d="M276.4,383.4c-26.3,2-49.7,4.9-68.5,7.7c-2.9-23.2-5.9-46.2-8.9-68.3
			c9.5-5.1,19.7-9.8,30.4-13.8c0.5,2.5,10.2-0.7,9.9-3.4c0,0,0-0.1,0-0.1c10.1-3.4,20.7-6.3,31.8-8.5
			C272.8,325.3,274.7,354.3,276.4,383.4z"/>
		<path id="box-33_1_" class="st4 box" data-param_id="1" data-scale_id="1" d="M344.6,290.9c-0.4,29.4-0.8,59.5-1.1,89.8c-23.7,0.1-46.3,1.1-67.1,2.7
			c-1.8-29.1-3.6-58.2-5.5-86.5c9.1-1.9,18.5-3.4,28.3-4.4c0,0.1,0,0.1,0,0.2c0.1,1.9,12,1,12-0.9c0-0.1,0-0.2,0-0.4
			C322,290.7,333.2,290.5,344.6,290.9z"/>
		<path id="box-32_1_" class="st4 box" data-param_id="1" data-scale_id="1" d="M413.6,383.7c-23.9-2.2-47.5-3-70.1-3c0.3-30.2,0.6-60.4,1.1-89.8c11.1,0.4,22.5,1.3,34.1,2.8
			c0,0.1,0,0.2,0,0.4c-0.1,2.2,9.2,3.2,10,1.1c11.6,1.8,23.4,4.3,35.5,7.4C420.5,328.8,416.9,356,413.6,383.7z"/>
		<path id="box-31_1_" class="st4 box" data-param_id="1" data-scale_id="1" d="M424.2,302.6c12.3,3.1,24.9,6.9,37.6,11.4c-2.3,18.5-3.3,50.2-1.9,75.7
			c-15.4-2.6-30.9-4.6-46.3-6C416.9,356,420.5,328.8,424.2,302.6z"/>
		<path id="box-30_1_" class="st4 box" data-param_id="1" data-scale_id="1" d="M464.2,467.6c1.1-14.1,2.2-27.2,3.3-40.1c3.1,1.1,9.5-10.3,12.7-13.5c1.5-1.5,3-3.2,4.4-4.8
			c4.1,14.3,11.6,30.5,20.4,46.3c-3.1,5.4-6.2,11-9.3,16.6c-10.9,19.2-22.4,39.4-34.9,60.3C461.5,507.4,462.8,486.6,464.2,467.6z"/>
		<path id="box-29_1_" class="st4 box" data-param_id="1" data-scale_id="1" d="M460.4,542.7c0.1-3.5,0.2-6.9,0.3-10.3c12.5-20.9,24-41.1,34.9-60.3
			c3.2-5.6,6.3-11.1,9.3-16.6c3.8,6.9,7.9,13.7,12,20.2c7.5,12,15.3,23,22.3,32.2c-5.2,9.1-12,17.6-21.5,24.8
			c-7.4,5.6-13.7,10.5-19.4,15.4c-10.3,8.8-19,17.5-29.6,30c-3.3,3.8-6.2,7.3-8.9,10.4C459.9,571.8,460.1,556.6,460.4,542.7z"/>
		<path id="box-28_1_" class="st4 box" data-param_id="1" data-scale_id="1" d="M504.9,455.5c-8.8-15.8-16.3-32-20.4-46.3c16.3-18.7,27.9-43,31.1-50.2
			c0.2-0.4,0.4-0.9,0.6-1.3c10.7,6.5,21.7,15.1,31.8,24C534.1,403.8,520.1,428.6,504.9,455.5z"/>
		<path id="box-27_1_" class="st4 box" data-param_id="1" data-scale_id="1" d="M548.1,381.7c14.2,12.4,26.5,25.2,33.5,32.7c-5,7.2-10,14.1-14.9,20.8
			c-7.7,10.5-10.6,28.5-16.6,47.3c-2.7,8.5-6.1,17.3-10.8,25.5c-7-9.1-14.8-20.2-22.3-32.2c-4.1-6.5-8.2-13.4-12-20.2
			C520.1,428.6,534.1,403.8,548.1,381.7z"/>
		<path id="box-26_1_" class="st4 box" data-param_id="1" data-scale_id="1" d="M548.1,381.7c-10.1-8.8-21.1-17.5-31.8-24c9.2-19.5,27.8-38,47.4-50.7
			c12.3-8,29.9-6.2,42.5,2.2C585.1,327.8,566.6,352.4,548.1,381.7z"/>
		<path id="box-25_1_" class="st4 box" data-param_id="1" data-scale_id="1" d="M548.1,381.7c18.5-29.3,37-53.8,58.1-72.4c13,8.8,20.7,24.7,11.5,44.3
			c-10.4,22.2-23.2,42.4-36.1,60.8C574.7,406.8,562.3,394.1,548.1,381.7z"/>
		<path id="box-24_1_" class="st4 box" data-param_id="1" data-scale_id="1" d="M199,322.8c-11.2,6-21.6,12.7-31.1,20c-1.4-19.7-3.9-42.2-6.8-65.1c7.1-2.5,17.6-5.8,30.4-8.5
			C194,286.3,196.5,304.3,199,322.8z"/>
		<path id="box-23_2_" class="st4 box" data-param_id="1" data-scale_id="1" d="M191.5,269.1c9.3-2,19.9-3.6,31.2-4.5c2.3,14.7,4.6,29.7,6.7,44.3c0,0,0,0,0,0.1
			c-10.7,4-20.8,8.7-30.4,13.8C196.5,304.3,194,286.3,191.5,269.1z"/>
		<path id="box-22_2_" class="st4 box" data-param_id="1" data-scale_id="1" d="M271,297c-11,2.3-21.6,5.2-31.8,8.5c-2.6-21.8-5-48.9-7.2-77.2c7.3-1.8,19.2-4.2,33.9-5.7
			C267.6,246.5,269.3,271.5,271,297z"/>
		<path id="box-21_2_" class="st4 box" data-param_id="1" data-scale_id="1" d="M265.9,222.7c9.2-0.9,19.4-1.4,30.3-1c1.2,25.7,2.2,50.4,3.1,70.9c-9.7,1-19.1,2.5-28.3,4.4
			C269.3,271.5,267.6,246.5,265.9,222.7z"/>
		<path id="box-20_2_" class="st4 box" data-param_id="1" data-scale_id="1" d="M346.2,199.8c-0.6,29.1-1.1,59.7-1.6,91.1c-11.4-0.4-22.6-0.2-33.4,0.6
			c0.2-25.3,1-57.8,2.2-91.3C321.5,199.7,332.9,199.4,346.2,199.8z"/>
		<path id="box-19_2_" class="st4 box" data-param_id="1" data-scale_id="1" d="M346.2,199.8c10.8,0.3,22.8,1.1,35.1,2.8c-0.6,33-1.5,65.3-2.6,91.2
			c-11.7-1.5-23-2.5-34.1-2.8C345,259.5,345.6,228.8,346.2,199.8z"/>
		<path id="box-18_2_" class="st4 box" data-param_id="1" data-scale_id="1" d="M424.2,302.6c-12.1-3.1-23.9-5.5-35.5-7.4c0-0.1,0-0.1,0-0.2c2.5-20.8,6.7-48.9,11.7-78.9
			c7.1,0.4,20.2,1.4,36.1,3.8C432.4,246.2,428.2,273.9,424.2,302.6z"/>
		<path id="box-17_2_" class="st4 box" data-param_id="1" data-scale_id="1" d="M436.6,220c11.2,1.7,23.7,4.1,36.5,7.5c-3.2,27-6.9,55.2-10.9,83.2c-0.2,1.1-0.3,2.2-0.4,3.4
			c-12.8-4.5-25.3-8.3-37.6-11.4C428.2,273.9,432.4,246.2,436.6,220z"/>
		<path id="box-16_2_" class="st4 box" data-param_id="1" data-scale_id="1" d="M191.5,269.1c-12.7,2.7-23.2,6-30.4,8.5c-2.4-19.3-5.1-39-7.6-57.7c7.3-2.5,17.4-5.5,29.4-8
			C185.7,229.7,188.6,248.9,191.5,269.1z"/>
		<path id="box-15_2_" class="st4 box" data-param_id="1" data-scale_id="1" d="M182.9,211.9c9.1-1.9,19.3-3.4,30.2-4.2c3.2,17.7,6.5,37.2,9.6,56.9
			c-11.3,0.8-21.8,2.5-31.2,4.5C188.6,248.9,185.7,229.7,182.9,211.9z"/>
		<path id="box-14_2_" class="st4 box" data-param_id="1" data-scale_id="1" d="M265.9,222.7c-14.7,1.4-26.6,3.9-33.9,5.7c-1.9-25.3-3.7-51.4-5.1-75.2
			c8.7-1.6,20.3-3.3,33.5-4C262.2,172,264,196.7,265.9,222.7z"/>
		<path id="box-13_2_" class="st4 box" data-param_id="1" data-scale_id="1" d="M265.9,222.7c-1.8-25.9-3.7-50.7-5.4-73.6c9.8-0.6,20.5-0.6,31.5,0.3
			c1.7,23,3.1,48.1,4.2,72.3C285.3,221.3,275,221.8,265.9,222.7z"/>
		<path id="box-12_2_" class="st4 box" data-param_id="1" data-scale_id="1" d="M346.2,199.8c-13.3-0.4-24.7,0-32.8,0.4c0.9-27.2,2-55.1,3.1-80.4c7.2-1,18.4-2.1,31.8-2.3
			C347.5,142.8,346.8,170.5,346.2,199.8z"/>
		<path id="box-11_1_" class="st4 box" data-param_id="1" data-scale_id="1" d="M348.3,117.5c10.3-0.2,21.9,0.2,33.9,1.7c0,25.8-0.3,54.8-0.8,83.3
			c-12.3-1.6-24.3-2.4-35.1-2.8C346.8,170.5,347.5,142.8,348.3,117.5z"/>
		<path id="box-10_1_" class="st4 box" data-param_id="1" data-scale_id="1" d="M447.1,155.7c-3.4,20.3-7,41.7-10.6,64.3c-15.9-2.4-29-3.4-36.1-3.8
			c3.5-20.5,7.3-41.9,11.3-62.5C417.6,153.7,430.5,153.8,447.1,155.7z"/>
		<path id="box-9_1_" class="st4 box" data-param_id="1" data-scale_id="1" d="M447.1,155.7c10,1.1,21.4,2.9,33.3,5.6c-2,20.4-4.5,42.8-7.3,66.1c-12.8-3.4-25.4-5.8-36.5-7.5
			C440.1,197.5,443.7,176,447.1,155.7z"/>
		<path id="box-8_1_" class="st4 box" data-param_id="1" data-scale_id="1" d="M167.2,123.5c4.5,20.5,9.9,51.2,15.7,88.4c-12,2.5-22.1,5.5-29.4,8c-3-22.3-5.7-43.3-7.3-60.7
			C144.3,138.5,154.8,126.4,167.2,123.5z"/>
		<path id="box-7_1_" class="st4 box" data-param_id="1" data-scale_id="1" d="M167.2,123.5c12.3-2.8,26.3,3.6,31.5,20.1c4.5,14.2,9.4,37.2,14.4,64.2
			c-10.9,0.8-21.1,2.3-30.2,4.2C177.1,174.8,171.6,144,167.2,123.5z"/>
		<path id="box-6_1_" class="st4 box" data-param_id="1" data-scale_id="1" d="M226.9,153.1c-1.5-26-2.6-49.2-3.2-65.7C223,67.2,237.5,55.9,252.6,55
			c2.3,25.1,5,57.2,7.8,94.1C247.2,149.8,235.6,151.5,226.9,153.1z"/>
		<path id="box-5_1_" class="st4 box" data-param_id="1" data-scale_id="1" d="M260.4,149.1c-2.8-36.8-5.5-69-7.8-94.1c14.2-0.9,28.9,7.4,32.1,26.1c2.9,17,5.2,41.2,7.2,68.2
			C281,148.5,270.3,148.5,260.4,149.1z"/>
		<path id="box-4_1_" class="st4 box" data-param_id="1" data-scale_id="1" d="M316.5,119.8c1.1-25.9,2.3-48.9,3.2-65.7c1-18.4,16.8-27.6,32.1-27.2
			c-1.3,24.2-2.5,55.1-3.6,90.6C334.9,117.7,323.7,118.8,316.5,119.8z"/>
		<path id="box-3_2_" class="st4 box" data-param_id="1" data-scale_id="1" d="M348.3,117.5c1.1-35.5,2.3-66.3,3.6-90.6c14.5,0.4,28.6,9.3,29.4,27.2
			c0.6,15.7,0.9,38.7,0.9,65.1C370.2,117.7,358.6,117.3,348.3,117.5z"/>
		<path id="box-2_2_" class="st4 box" data-param_id="1" data-scale_id="1" d="M411.8,153.7c4.2-21.7,8.7-42.6,12.9-60.6c4.8-20.2,22.3-27,37.3-23.6
			c-4.3,25.1-9.5,54.1-14.9,86.3C430.5,153.8,417.6,153.7,411.8,153.7z"/>
		<path id="box-1_2_" class="st4 box" data-param_id="1" data-scale_id="1" d="M462,69.4c13.4,3,24.9,14.1,23.7,31c-1.2,16.5-3,37.4-5.3,60.9c-11.9-2.7-23.2-4.5-33.3-5.6
			C452.6,123.6,457.7,94.5,462,69.4z"/>
	</g>
</g>
<g id="sorri-left-hand" class="st0">
	<path id="base_3_" class="st1 base" d="M417.3,607.1c-16.4-1.8-35.4-3.4-56.3-4.4c-17.3-0.8-35.8-1.2-55.1-0.8
		c-17.2,0.4-34.9,1.3-52.9,3c-5.8,0.6-11.6,1.2-17.5,1.9c-9.2,1.2-18.5,2.6-27.7,4.2c1.1,1.3,1.6,2.4,1.6,2.4L226,689h28.3h42.4h8.5
		h53.2h52.9h9.2l20.6-75.2c0,0,0.7-1.5,1.9-3.3C435.4,609.4,426.8,608.1,417.3,607.1z"/>
	<path id="letter-e_2_" class="st2 letter" d="M303.4,675.3v-56.7h42v9.6h-30.6v12.6h28.4v9.5h-28.4v15.4h31.7v9.5H303.4z"/>
	<g id="boxes_3_" class="st3 boxes">
		<path id="box-50_3_" class="st4 box" data-param_id="1" data-scale_id="1" d="M417.3,607.1c9.5,1,18.1,2.1,25.6,3.2c2.9-4.9,8.4-14.1,9.1-15.9
			c6.7-18.8,12.2-36.5,16.5-53.1c-12-1.3-27-2.8-44.5-4C421.5,561.3,419.3,584.8,417.3,607.1z"/>
		<path id="box-49_3_" class="st4 box" data-param_id="1" data-scale_id="1" d="M361,602.6c20.9,1,40,2.6,56.3,4.4c2-22.3,4.2-45.7,6.7-69.8c-17.6-1.3-37.8-2.3-60-2.8
			C362.9,557.9,361.9,580.8,361,602.6z"/>
		<path id="box-48_3_" class="st4 box" data-param_id="1" data-scale_id="1" d="M306,534.3c0,23.2,0,45.9-0.1,67.6c19.3-0.4,37.8,0,55.1,0.8c0.9-21.8,1.9-44.7,3-68.3
			C345.9,533.9,326.5,533.8,306,534.3z"/>
		<path id="box-47_3_" class="st4 box" data-param_id="1" data-scale_id="1" d="M306,534.3c-18.1,0.4-37,1.2-56.5,2.5c1.5,22.6,2.7,45.4,3.5,68.1c18-1.7,35.7-2.7,52.9-3
			C306,580.1,306,557.5,306,534.3z"/>
		<path id="box-46_3_" class="st4 box" data-param_id="1" data-scale_id="1" d="M249.5,536.8c-18.1,1.2-36.8,2.9-55.7,5.2c-1.8,0.2-3.7,0.4-5.5,0.7
			c0.4,13.9,0.6,29.1,0.6,45.9c10.5,12.4,16.4,19.4,19,22.5c9.2-1.6,18.5-3,27.7-4.2c5.8-0.7,11.7-1.4,17.5-1.9
			C252.2,582.2,251,559.4,249.5,536.8z"/>
		<path id="box-45_3_" class="st4 box" data-param_id="1" data-scale_id="1" d="M424,537.2c17.5,1.2,32.5,2.7,44.5,4c6.8-25.9,10.9-49.1,13.3-69.8c-11.8-2-28.7-4.4-49.9-6.7
			C429.1,489.2,426.5,513.5,424,537.2z"/>
		<path id="box-44_3_" class="st4 box" data-param_id="1" data-scale_id="1" d="M364,534.4c22.2,0.5,42.4,1.6,60,2.8c2.4-23.7,5.1-48,7.9-72.4c-18.4-1.9-39.9-3.7-64.1-4.7
			C366.5,485.3,365.2,510.2,364,534.4z"/>
		<path id="box-43_3_" class="st4 box" data-param_id="1" data-scale_id="1" d="M305.8,459.1c0.1,25.5,0.2,50.6,0.2,75.1c20.5-0.4,39.9-0.4,58,0.1
			c1.2-24.2,2.5-49.1,3.8-74.3C348.7,459.2,327.9,458.8,305.8,459.1z"/>
		<path id="box-42_3_" class="st4 box" data-param_id="1" data-scale_id="1" d="M306,534.3c0-24.5-0.1-49.7-0.2-75.1c-19.8,0.3-40.6,1.1-62.3,2.6c2.3,24.8,4.4,49.9,6,75.1
			C269,535.5,287.9,534.7,306,534.3z"/>
		<path id="box-41_3_" class="st4 box" data-param_id="1" data-scale_id="1" d="M243.5,461.7c-19,1.3-38.7,3.3-58.9,5.8c1.4,19,2.7,39.9,3.5,64.8c0.1,3.3,0.2,6.8,0.3,10.3
			c1.8-0.2,3.7-0.5,5.5-0.7c19-2.3,37.6-4,55.7-5.2C247.8,511.6,245.8,486.5,243.5,461.7z"/>
		<path id="box-40_3_" class="st4 box" data-param_id="1" data-scale_id="1" d="M432,464.8c21.2,2.2,38.1,4.7,49.9,6.7c3.4-29.2,3.3-53.3,2.3-72.7
			c-7.8-1.6-22.9-4.5-43.3-7.6C437.8,415.5,434.8,440.2,432,464.8z"/>
		<path id="box-39_3_" class="st4 box" data-param_id="1" data-scale_id="1" d="M367.9,460.1c24.2,1.1,45.7,2.8,64.1,4.7c2.8-24.6,5.8-49.3,8.9-73.6
			c-18.8-2.8-42.2-5.7-68.5-7.7C370.7,409,369.2,434.7,367.9,460.1z"/>
		<path id="box-38_3_" class="st4 box" data-param_id="1" data-scale_id="1" d="M367.9,460.1c1.4-25.4,2.9-51,4.4-76.6c-20.8-1.6-43.4-2.7-67.1-2.7
			c0.2,26.2,0.4,52.4,0.6,78.4C327.9,458.8,348.7,459.2,367.9,460.1z"/>
		<path id="box-37_3_" class="st4 box" data-param_id="1" data-scale_id="1" d="M305.2,380.7c-22.6-0.1-46.2,0.8-70.1,3c3,25.5,5.9,51.6,8.3,78c21.7-1.5,42.5-2.3,62.3-2.6
			C305.6,433.2,305.4,406.9,305.2,380.7z"/>
		<path id="box-36_3_" class="st4 box" data-param_id="1" data-scale_id="1" d="M243.5,461.7c-2.5-26.4-5.3-52.5-8.3-78c-15.4,1.4-30.9,3.4-46.3,6c-1,17.4-3.1,31.9-6.8,37.2
			c-0.2,0.3-0.5,0.5-0.8,0.6c1.1,12.9,2.2,26,3.3,40.1C204.8,465,224.4,463.1,243.5,461.7z"/>
		<path id="box-35_3_" class="st4 box" data-param_id="1" data-scale_id="1" d="M440.8,391.1c20.4,3,35.5,6,43.3,7.6c-1.3-24.6-4.2-41.6-3.6-51.8c0.1-1.4,0.2-2.8,0.3-4.1
			c-9.5-7.2-19.9-14-31.1-20C446.7,345,443.7,367.9,440.8,391.1z"/>
		<path id="box-34_3_" class="st4 box" data-param_id="1" data-scale_id="1" d="M372.3,383.4c26.3,2,49.7,4.9,68.5,7.7c2.9-23.2,5.9-46.2,8.9-68.3
			c-9.5-5.1-19.7-9.8-30.4-13.8c-0.5,2.5-10.2-0.7-9.9-3.4c0,0,0-0.1,0-0.1c-10.1-3.4-20.7-6.3-31.8-8.5
			C375.9,325.3,374,354.3,372.3,383.4z"/>
		<path id="box-33_3_" class="st4 box" data-param_id="1" data-scale_id="1" d="M304.1,290.9c0.4,29.4,0.8,59.5,1.1,89.8c23.7,0.1,46.3,1.1,67.1,2.7
			c1.8-29.1,3.6-58.2,5.5-86.5c-9.1-1.9-18.5-3.4-28.3-4.4c0,0.1,0,0.1,0,0.2c-0.1,1.9-12,1-12-0.9c0-0.1,0-0.2,0-0.4
			C326.7,290.7,315.6,290.5,304.1,290.9z"/>
		<path id="box-32_3_" class="st4 box" data-param_id="1" data-scale_id="1" d="M235.1,383.7c23.9-2.2,47.5-3,70.1-3c-0.3-30.2-0.6-60.4-1.1-89.8
			c-11.1,0.4-22.5,1.3-34.1,2.8c0,0.1,0,0.2,0,0.4c0.1,2.2-9.2,3.2-10,1.1c-11.6,1.8-23.4,4.3-35.5,7.4
			C228.3,328.8,231.8,356,235.1,383.7z"/>
		<path id="box-31_3_" class="st4 box" data-param_id="1" data-scale_id="1" d="M224.6,302.6c-12.3,3.1-24.9,6.9-37.6,11.4c2.3,18.5,3.3,50.2,1.9,75.7
			c15.4-2.6,30.9-4.6,46.3-6C231.8,356,228.3,328.8,224.6,302.6z"/>
		<path id="box-30_3_" class="st4 box" data-param_id="1" data-scale_id="1" d="M184.5,467.6c-1.1-14.1-2.2-27.2-3.3-40.1c-3.1,1.1-9.5-10.3-12.7-13.5
			c-1.5-1.5-3-3.2-4.4-4.8c-4.1,14.3-11.6,30.5-20.4,46.3c3.1,5.4,6.2,11,9.3,16.6c10.9,19.2,22.4,39.4,34.9,60.3
			C187.2,507.4,186,486.6,184.5,467.6z"/>
		<path id="box-29_3_" class="st4 box" data-param_id="1" data-scale_id="1" d="M188.3,542.7c-0.1-3.5-0.2-6.9-0.3-10.3c-12.5-20.9-24-41.1-34.9-60.3
			c-3.2-5.6-6.3-11.1-9.3-16.6c-3.8,6.9-7.9,13.7-12,20.2c-7.5,12-15.3,23-22.3,32.2c5.2,9.1,12,17.6,21.5,24.8
			c7.4,5.6,13.7,10.5,19.4,15.4c10.3,8.8,19,17.5,29.6,30c3.3,3.8,6.2,7.3,8.9,10.4C188.8,571.8,188.6,556.6,188.3,542.7z"/>
		<path id="box-28_3_" class="st4 box" data-param_id="1" data-scale_id="1" d="M143.8,455.5c8.8-15.8,16.3-32,20.4-46.3c-16.3-18.7-27.9-43-31.1-50.2
			c-0.2-0.4-0.4-0.9-0.6-1.3c-10.7,6.5-21.7,15.1-31.8,24C114.6,403.8,128.6,428.6,143.8,455.5z"/>
		<path id="box-27_3_" class="st4 box" data-param_id="1" data-scale_id="1" d="M100.6,381.7c-14.2,12.4-26.5,25.2-33.5,32.7c5,7.2,10,14.1,14.9,20.8
			c7.7,10.5,10.6,28.5,16.6,47.3c2.7,8.5,6.1,17.3,10.8,25.5c7-9.1,14.8-20.2,22.3-32.2c4.1-6.5,8.2-13.4,12-20.2
			C128.6,428.6,114.6,403.8,100.6,381.7z"/>
		<path id="box-26_3_" class="st4 box" data-param_id="1" data-scale_id="1" d="M100.6,381.7c10.1-8.8,21.1-17.5,31.8-24c-9.2-19.5-27.8-38-47.4-50.7
			c-12.3-8-29.9-6.2-42.5,2.2C63.6,327.8,82.1,352.4,100.6,381.7z"/>
		<path id="box-25_3_" class="st4 box" data-param_id="1" data-scale_id="1" d="M100.6,381.7c-18.5-29.3-37-53.8-58.1-72.4c-13,8.8-20.7,24.7-11.5,44.3
			c10.4,22.2,23.2,42.4,36.1,60.8C74,406.8,86.4,394.1,100.6,381.7z"/>
		<path id="box-24_3_" class="st4 box" data-param_id="1" data-scale_id="1" d="M449.7,322.8c11.2,6,21.6,12.7,31.1,20c1.4-19.7,3.9-42.2,6.8-65.1
			c-7.1-2.5-17.6-5.8-30.4-8.5C454.7,286.3,452.2,304.3,449.7,322.8z"/>
		<path id="box-23_1_" class="st4 box" data-param_id="1" data-scale_id="1" d="M457.2,269.1c-9.3-2-19.9-3.6-31.2-4.5c-2.3,14.7-4.6,29.7-6.7,44.3c0,0,0,0,0,0.1
			c10.7,4,20.8,8.7,30.4,13.8C452.2,304.3,454.7,286.3,457.2,269.1z"/>
		<path id="box-22_1_" class="st4 box" data-param_id="1" data-scale_id="1" d="M377.8,297c11,2.3,21.6,5.2,31.8,8.5c2.6-21.8,5-48.9,7.2-77.2c-7.3-1.8-19.2-4.2-33.9-5.7
			C381.2,246.5,379.4,271.5,377.8,297z"/>
		<path id="box-21_1_" class="st4 box" data-param_id="1" data-scale_id="1" d="M382.9,222.7c-9.2-0.9-19.4-1.4-30.3-1c-1.2,25.7-2.2,50.4-3.1,70.9c9.7,1,19.1,2.5,28.3,4.4
			C379.4,271.5,381.2,246.5,382.9,222.7z"/>
		<path id="box-20_1_" class="st4 box" data-param_id="1" data-scale_id="1" d="M302.5,199.8c0.6,29.1,1.1,59.7,1.6,91.1c11.4-0.4,22.6-0.2,33.4,0.6
			c-0.2-25.3-1-57.8-2.2-91.3C327.3,199.7,315.8,199.4,302.5,199.8z"/>
		<path id="box-19_1_" class="st4 box" data-param_id="1" data-scale_id="1" d="M302.5,199.8c-10.8,0.3-22.8,1.1-35.1,2.8c0.6,33,1.5,65.3,2.6,91.2c11.7-1.5,23-2.5,34.1-2.8
			C303.7,259.5,303.1,228.8,302.5,199.8z"/>
		<path id="box-18_1_" class="st4 box" data-param_id="1" data-scale_id="1" d="M224.6,302.6c12.1-3.1,23.9-5.5,35.5-7.4c0-0.1,0-0.1,0-0.2c-2.5-20.8-6.7-48.9-11.7-78.9
			c-7.1,0.4-20.2,1.4-36.1,3.8C216.3,246.2,220.5,273.9,224.6,302.6z"/>
		<path id="box-17_1_" class="st4 box" data-param_id="1" data-scale_id="1" d="M212.1,220c-11.2,1.7-23.7,4.1-36.5,7.5c3.2,27,6.9,55.2,10.9,83.2c0.2,1.1,0.3,2.2,0.4,3.4
			c12.8-4.5,25.3-8.3,37.6-11.4C220.5,273.9,216.3,246.2,212.1,220z"/>
		<path id="box-16_1_" class="st4 box" data-param_id="1" data-scale_id="1" d="M457.2,269.1c12.7,2.7,23.2,6,30.4,8.5c2.4-19.3,5.1-39,7.6-57.7c-7.3-2.5-17.4-5.5-29.4-8
			C463,229.7,460.1,248.9,457.2,269.1z"/>
		<path id="box-15_1_" class="st4 box" data-param_id="1" data-scale_id="1" d="M465.8,211.9c-9.1-1.9-19.3-3.4-30.2-4.2c-3.2,17.7-6.5,37.2-9.6,56.9
			c11.3,0.8,21.8,2.5,31.2,4.5C460.1,248.9,463,229.7,465.8,211.9z"/>
		<path id="box-14_1_" class="st4 box" data-param_id="1" data-scale_id="1" d="M382.9,222.7c14.7,1.4,26.6,3.9,33.9,5.7c1.9-25.3,3.7-51.4,5.1-75.2
			c-8.7-1.6-20.3-3.3-33.5-4C386.5,172,384.7,196.7,382.9,222.7z"/>
		<path id="box-13_1_" class="st4 box" data-param_id="1" data-scale_id="1" d="M382.9,222.7c1.8-25.9,3.7-50.7,5.4-73.6c-9.8-0.6-20.5-0.6-31.5,0.3
			c-1.7,23-3.1,48.1-4.2,72.3C363.4,221.3,373.7,221.8,382.9,222.7z"/>
		<path id="box-12_1_" class="st4 box" data-param_id="1" data-scale_id="1" d="M302.5,199.8c13.3-0.4,24.7,0,32.8,0.4c-0.9-27.2-2-55.1-3.1-80.4c-7.2-1-18.4-2.1-31.8-2.3
			C301.2,142.8,301.9,170.5,302.5,199.8z"/>
		<path id="box-11_3_" class="st4 box" data-param_id="1" data-scale_id="1" d="M300.5,117.5c-10.3-0.2-21.9,0.2-33.9,1.7c0,25.8,0.3,54.8,0.8,83.3
			c12.3-1.6,24.3-2.4,35.1-2.8C301.9,170.5,301.2,142.8,300.5,117.5z"/>
		<path id="box-10_3_" class="st4 box" data-param_id="1" data-scale_id="1" d="M201.6,155.7c3.4,20.3,7,41.7,10.6,64.3c15.9-2.4,29-3.4,36.1-3.8
			c-3.5-20.5-7.3-41.9-11.3-62.5C231.1,153.7,218.2,153.8,201.6,155.7z"/>
		<path id="box-9_3_" class="st4 box" data-param_id="1" data-scale_id="1" d="M201.6,155.7c-10,1.1-21.4,2.9-33.3,5.6c2,20.4,4.5,42.8,7.3,66.1c12.8-3.4,25.4-5.8,36.5-7.5
			C208.6,197.5,205,176,201.6,155.7z"/>
		<path id="box-8_3_" class="st4 box" data-param_id="1" data-scale_id="1" d="M481.5,123.5c-4.5,20.5-9.9,51.2-15.7,88.4c12,2.5,22.1,5.5,29.4,8c3-22.3,5.7-43.3,7.3-60.7
			C504.4,138.5,493.9,126.4,481.5,123.5z"/>
		<path id="box-7_3_" class="st4 box" data-param_id="1" data-scale_id="1" d="M481.5,123.5c-12.3-2.8-26.3,3.6-31.5,20.1c-4.5,14.2-9.4,37.2-14.4,64.2
			c10.9,0.8,21.1,2.3,30.2,4.2C471.7,174.8,477.1,144,481.5,123.5z"/>
		<path id="box-6_3_" class="st4 box" data-param_id="1" data-scale_id="1" d="M421.8,153.1c1.5-26,2.6-49.2,3.2-65.7c0.7-20.2-13.8-31.5-28.9-32.4
			c-2.3,25.1-5,57.2-7.8,94.1C401.5,149.8,413.1,151.5,421.8,153.1z"/>
		<path id="box-5_3_" class="st4 box" data-param_id="1" data-scale_id="1" d="M388.3,149.1c2.8-36.8,5.5-69,7.8-94.1c-14.2-0.9-28.9,7.4-32.1,26.1
			c-2.9,17-5.2,41.2-7.2,68.2C367.8,148.5,378.4,148.5,388.3,149.1z"/>
		<path id="box-4_3_" class="st4 box" data-param_id="1" data-scale_id="1" d="M332.2,119.8c-1.1-25.9-2.3-48.9-3.2-65.7c-1-18.4-16.8-27.6-32.1-27.2
			c1.3,24.2,2.5,55.1,3.6,90.6C313.8,117.7,325,118.8,332.2,119.8z"/>
		<path id="box-3_1_" class="st4 box" data-param_id="1" data-scale_id="1" d="M300.5,117.5c-1.1-35.5-2.3-66.3-3.6-90.6c-14.5,0.4-28.6,9.3-29.4,27.2
			c-0.6,15.7-0.9,38.7-0.9,65.1C278.5,117.7,290.1,117.3,300.5,117.5z"/>
		<path id="box-2_1_" class="st4 box" data-param_id="1" data-scale_id="1" d="M236.9,153.7c-4.2-21.7-8.7-42.6-12.9-60.6c-4.8-20.2-22.3-27-37.3-23.6
			c4.3,25.1,9.5,54.1,14.9,86.3C218.2,153.8,231.1,153.7,236.9,153.7z"/>
		<path id="box-1_1_" class="st4 box" data-param_id="1" data-scale_id="1" d="M186.7,69.4c-13.4,3-24.9,14.1-23.7,31c1.2,16.5,3,37.4,5.3,60.9c11.9-2.7,23.2-4.5,33.3-5.6
			C196.1,123.6,191,94.5,186.7,69.4z"/>
	</g>
</g>
</svg>
